<svg xmlns="http://www.w3.org/2000/svg" width="14" height="16" viewBox="0 0 14 16" fill="none">
  <path d="M6.99995 16C6.86734 16 6.74016 15.9473 6.64639 15.8536C6.55263 15.7598 6.49995 15.6326 6.49995 15.5V14.207L5.85395 14.854C5.76006 14.9478 5.63278 15.0004 5.50009 15.0003C5.36741 15.0002 5.2402 14.9474 5.14645 14.8535C5.05269 14.7596 5.00008 14.6323 5.00017 14.4996C5.00026 14.367 5.05306 14.2398 5.14695 14.146L6.49995 12.793V8.866L3.09995 10.829L2.60395 12.679C2.56947 12.8071 2.48552 12.9163 2.37056 12.9825C2.2556 13.0487 2.11905 13.0665 1.99095 13.032C1.86285 12.9975 1.75369 12.9136 1.68749 12.7986C1.62129 12.6836 1.60347 12.5471 1.63795 12.419L1.87495 11.537L0.754947 12.183C0.640168 12.2483 0.504236 12.2655 0.376815 12.2309C0.249394 12.1963 0.140829 12.1127 0.0748102 11.9983C0.00879192 11.884 -0.00931935 11.7482 0.0244287 11.6205C0.0581767 11.4929 0.141044 11.3838 0.254948 11.317L1.37495 10.671L0.490948 10.434C0.427519 10.4169 0.368074 10.3875 0.316007 10.3475C0.26394 10.3074 0.22027 10.2575 0.187491 10.2006C0.154712 10.1437 0.133465 10.0809 0.124965 10.0157C0.116464 9.9506 0.120876 9.88443 0.137948 9.821C0.155019 9.75757 0.184417 9.69813 0.224463 9.64606C0.264508 9.59399 0.314416 9.55032 0.371339 9.51754C0.428261 9.48477 0.491082 9.46352 0.556216 9.45502C0.621349 9.44652 0.687519 9.45093 0.750948 9.468L2.59895 9.963L5.99995 8L2.59995 6.037L0.749947 6.532C0.622681 6.56372 0.488048 6.54416 0.375067 6.47754C0.262087 6.41092 0.179807 6.30258 0.145963 6.17586C0.112119 6.04914 0.129422 5.9142 0.194141 5.80012C0.258861 5.68604 0.365814 5.60196 0.491948 5.566L1.37495 5.329L0.254948 4.683C0.197625 4.65041 0.147315 4.6068 0.106914 4.55469C0.066513 4.50257 0.0368194 4.44298 0.0195425 4.37935C0.00226566 4.31571 -0.00225326 4.24928 0.00624605 4.18389C0.0147454 4.1185 0.036095 4.05544 0.0690658 3.99834C0.102036 3.94123 0.145977 3.89121 0.198358 3.85116C0.250739 3.8111 0.310525 3.7818 0.374274 3.76495C0.438024 3.7481 0.504478 3.74402 0.56981 3.75295C0.635142 3.76188 0.698062 3.78365 0.754947 3.817L1.87495 4.463L1.63795 3.58C1.61975 3.51618 1.61444 3.44937 1.62233 3.38348C1.63022 3.31758 1.65115 3.25392 1.6839 3.1962C1.71665 3.13847 1.76056 3.08785 1.81307 3.04727C1.86559 3.00669 1.92565 2.97697 1.98977 2.95985C2.05389 2.94272 2.12077 2.93854 2.18653 2.94753C2.25228 2.95652 2.31559 2.97851 2.37275 3.01222C2.42992 3.04593 2.4798 3.09068 2.5195 3.14386C2.55919 3.19705 2.5879 3.2576 2.60395 3.322L3.09895 5.171L6.49995 7.134V3.207L5.14695 1.854C5.10046 1.80758 5.06357 1.75245 5.03839 1.69177C5.0132 1.6311 5.00022 1.56605 5.00017 1.50035C5.00012 1.43466 5.01302 1.36959 5.03812 1.30888C5.06321 1.24816 5.10003 1.19299 5.14645 1.1465C5.19287 1.10001 5.24799 1.06312 5.30867 1.03794C5.36935 1.01275 5.4344 0.999768 5.50009 0.999722C5.56579 0.999676 5.63085 1.01257 5.69157 1.03767C5.75228 1.06277 5.80746 1.09958 5.85395 1.146L6.49995 1.793V0.5C6.49995 0.367392 6.55263 0.240215 6.64639 0.146447C6.74016 0.0526784 6.86734 0 6.99995 0C7.13256 0 7.25973 0.0526784 7.3535 0.146447C7.44727 0.240215 7.49995 0.367392 7.49995 0.5V1.793L8.14695 1.146C8.24083 1.05225 8.36812 0.999628 8.5008 0.999722C8.63348 0.999816 8.76069 1.05261 8.85445 1.1465C8.9482 1.24039 9.00082 1.36767 9.00073 1.50035C9.00063 1.63304 8.94783 1.76025 8.85395 1.854L7.49995 3.207V7.134L10.8999 5.171L11.3959 3.321C11.4304 3.1929 11.5144 3.08374 11.6293 3.01754C11.7443 2.95134 11.8808 2.93352 12.0089 2.968C12.137 3.00248 12.2462 3.08643 12.3124 3.20139C12.3786 3.31635 12.3964 3.4529 12.3619 3.581L12.1259 4.463L13.2459 3.817C13.3607 3.75174 13.4967 3.73453 13.6241 3.76913C13.7515 3.80372 13.8601 3.88731 13.9261 4.00165C13.9921 4.116 14.0102 4.25181 13.9765 4.37946C13.9427 4.50711 13.8599 4.61622 13.7459 4.683L12.6259 5.329L13.5089 5.566C13.637 5.60048 13.7462 5.68443 13.8124 5.79939C13.8786 5.91435 13.8964 6.0509 13.8619 6.179C13.8275 6.3071 13.7435 6.41626 13.6286 6.48246C13.5136 6.54866 13.377 6.56648 13.2489 6.532L11.4009 6.037L7.99995 8L11.3999 9.963L13.2489 9.468C13.377 9.43365 13.5135 9.4516 13.6284 9.5179C13.7433 9.58419 13.8271 9.6934 13.8614 9.8215C13.8958 9.9496 13.8778 10.0861 13.8116 10.201C13.7453 10.3158 13.636 10.3997 13.5079 10.434L12.6249 10.671L13.7449 11.317C13.8589 11.3838 13.9417 11.4929 13.9755 11.6205C14.0092 11.7482 13.9911 11.884 13.9251 11.9983C13.8591 12.1127 13.7505 12.1963 13.6231 12.2309C13.4957 12.2655 13.3597 12.2483 13.2449 12.183L12.1249 11.537L12.3609 12.42C12.3791 12.4838 12.3845 12.5506 12.3766 12.6165C12.3687 12.6824 12.3477 12.7461 12.315 12.8038C12.2822 12.8615 12.2383 12.9122 12.1858 12.9527C12.1333 12.9933 12.0732 13.023 12.0091 13.0402C11.945 13.0573 11.8781 13.0615 11.8124 13.0525C11.7466 13.0435 11.6833 13.0215 11.6261 12.9878C11.569 12.9541 11.5191 12.9093 11.4794 12.8561C11.4397 12.803 11.411 12.7424 11.3949 12.678L10.8999 10.829L7.49995 8.866V12.793L8.85295 14.146C8.94683 14.2398 8.99963 14.367 8.99973 14.4996C8.99982 14.6323 8.9472 14.7596 8.85345 14.8535C8.75969 14.9474 8.63248 15.0002 8.4998 15.0003C8.36712 15.0004 8.23983 14.9478 8.14595 14.854L7.49895 14.207V15.5C7.49895 15.6326 7.44627 15.7598 7.3525 15.8536C7.25873 15.9473 7.13256 16 6.99995 16Z" fill="white"/>
</svg>